<?xml version="1.0" encoding="UTF-8"?>
<svg id="Calque_2" data-name="Calque 2" xmlns="http://www.w3.org/2000/svg" viewBox="0 0 207 109.98">
  <defs>
    <style>
      .cls-1, .cls-2 {
        fill: #f2f2f2;
      }

      .cls-2 {
        font-family: Silom, Silom;
        font-size: 27.91px;
      }
    </style>
  </defs>
  <g id="Calque_1-2" data-name="Calque 1">
    <g>
      <g>
        <path class="cls-1" d="m85.47,2v67.83L30.67,14.55l-11.84,29h14.38c2.1,0,3.81,1.7,3.82,3.81h0c0,2.12-1.7,3.83-3.82,3.83H15.7l-7.06,17.27H0L28.73,0l48.18,49.58-.18-47.58h8.73Z"/>
        <path class="cls-1" d="m149.52,23.82c-1.3-3.97-3.35-7.59-6.14-10.87-2.79-3.27-6.47-5.91-11.04-7.91-4.58-2-10.11-3-16.6-3h-17.91v65.74h21.09c4.37,0,8.5-.75,12.42-2.23,3.91-1.48,7.37-3.62,10.41-6.41,3.03-2.79,5.41-6.15,7.14-10.09,1.73-3.94,2.59-8.39,2.59-13.37,0-3.94-.65-7.89-1.96-11.87Zm-8.96,21.55c-1.27,3-3.04,5.54-5.32,7.59-2.27,2.06-4.94,3.64-8,4.73-3.06,1.09-6.42,1.64-10.05,1.64h-10.55V10.5h11.37c3.21,0,6.27.54,9.18,1.59,2.91,1.06,5.51,2.63,7.82,4.68,2.3,2.06,4.12,4.63,5.45,7.68,1.33,3.06,2,6.63,2,10.68,0,3.82-.63,7.23-1.91,10.23Z"/>
        <path class="cls-1" d="m207,34.91c0,4.67-.88,9.03-2.63,13.09-1.76,4.07-4.2,7.62-7.32,10.68-3.12,3.07-6.7,5.46-10.72,7.18-4.04,1.73-8.35,2.59-12.96,2.59s-9.02-.85-13.05-2.55c-3.25-1.36-6.18-3.15-8.82-5.39.59-.46,1.16-.96,1.73-1.47,1.63-1.51,3.08-3.18,4.34-5.02,1.89,1.65,4.01,2.99,6.34,4.03,2.97,1.3,6.18,1.94,9.63,1.94s6.58-.65,9.55-1.94c2.97-1.31,5.55-3.11,7.73-5.42,2.18-2.31,3.91-4.96,5.18-7.96,1.27-3,1.91-6.25,1.91-9.77s-.64-6.72-1.91-9.77c-1.27-3.06-3.04-5.75-5.27-8.05-2.25-2.3-4.85-4.1-7.82-5.41-2.96-1.3-6.15-1.95-9.54-1.95s-6.67.66-9.64,1.99c-2.42,1.09-4.59,2.5-6.52,4.23-.71-1.06-1.49-2.09-2.34-3.09-1.01-1.18-2.13-2.28-3.37-3.29,2.63-2.3,5.58-4.18,8.83-5.62,4.03-1.78,8.38-2.68,13.05-2.68s8.92.9,12.96,2.68c4.03,1.79,7.61,4.25,10.72,7.37,3.12,3.12,5.56,6.69,7.32,10.73,1.75,4.02,2.63,8.31,2.63,12.86Z"/>
        <line class="cls-1" x1="74.2" y1="58.46" x2="36.92" y2="20.86"/>
      </g>
      <text class="cls-2" transform="translate(0 96.14)"><tspan x="0" y="0">TECHNOLOGIES</tspan></text>
    </g>
  </g>
</svg>